<svg xmlns="http://www.w3.org/2000/svg" viewBox="0 0 247.16 229.12"><defs><style>.cls-1{fill:none;stroke:#000;stroke-miterlimit:10;}</style></defs><g id="Layer_2" data-name="Layer 2"><g id="Layer_2-2" data-name="Layer 2"><path class="cls-1" d="M246.22.5,195.85,76,181.5,97.48q-7,10.47-14,21Q160.32,129.2,153.15,140l-15.27,22.87-14.37,21.53L94.24,228.22l-14.3-21.63-13.89-21L51.76,164,66.27,142.3l14.64-21.84L65.63,97.54,51.32,76.07,36.92,54.49,14.59,21,.93.5H73.1l-6.48,9.68L59.37,21H43.15l8.1,12.12,14.4,21.57L80,76.12,95.27,99,110.6,76.15l-15.3-23L81,31.77,88.23,21l7.11-10.61L102,.5h87.92L176.17,21l-8.53,12.75L153.3,55.18,139,33.76,147.57,21H116.86l-7.23,10.79L125,54.73l14.3,21.42L124.91,97.6,109.6,120.48,95.24,141.94l-14.7,22,13.91,21,.82-1.24,14-20.8,14.38-21.46,15.31-22.84,14.38-21.46,14-20.94,14.37-21.44L218.06.5Z"/></g></g></svg>